{"title":"Match of the Day 2 - S10E06 - 20th September 2015 - 720p x264","uid":12460380,"size":1808341354,"categoryP":"video","categoryS":"tv_shows","magnet":"?xt=urn:btih:f78a0a0a106e3a954c5e26ff52e359f8b42a0ceb&amp;dn=Match+of+the+Day+2+-+S10E06+-+20th+September+2015+-+720p+x264&amp;tr=udp%3A%2F%2Ftracker.openbittorrent.com%3A80&amp;tr=udp%3A%2F%2Fopen.demonii.com%3A1337&amp;tr=udp%3A%2F%2Ftracker.coppersurfer.tk%3A6969&amp;tr=udp%3A%2F%2Fexodus.desync.com%3A6969","seeders":12,"leechers":0,"uploader":"rugbybill","files":2,"time":1442796427,"description":"SPORT: Match of the Day 2\nOn: BBC 2 HD     \nDate: Sunday 20th September 2015 \nTime: 22:00 to 23:10 \n\nMark Chapman introduces highlights and analysis of the day's three Premier League matches plus a round-up of the weekend's earlier action. Southampton face Manchester United, a side they beat for the first time in 12 league and cup meetings when they last played. Norwich travel to Liverpool, looking for their first win at Anfield since 1994, whilst the day's other match is a London derby at White Hart Lane between Tottenham and Crystal Palace.\n\n\n\nGeneral\nComplete name               : Match.of.the.Day.2-S10E06-2015.09.20-720p.x264.mp4\nFormat                      : MPEG-4\nFormat profile              : Base Media / Version 2\nCodec ID                    : mp42\nFile size                   : 1.68 GiB\nDuration                    : 1h 9mn\nOverall bit rate mode       : Variable\nOverall bit rate            : 3 467 Kbps\nWriting application         : #YGFD                     \n\nVideo\nID                          : 1\nFormat                      : AVC\nFormat/Info                 : Advanced Video Codec\nFormat profile              : &lt;a class=&quot;__cf_email__&quot; href=&quot;/cdn-cgi/l/email-protection&quot; data-cfemail=&quot;733b1a141b333f405d42&quot;&gt;[email&amp;#160;protected]&lt;/a&gt;&lt;script data-cfhash='f9e31' type=&quot;text/javascript&quot;&gt;\n/* &lt;![CDATA[ */!function(){try{var t=&quot;currentScript&quot;in document?document.currentScript:function(){for(var t=document.getElementsByTagName(&quot;script&quot;),e=t.length;e--;)if(t[e].getAttribute(&quot;data-cfhash&quot;))return t[e]}();if(t&amp;&amp;t.previousSibling){var e,r,n,i,c=t.previousSibling,a=c.getAttribute(&quot;data-cfemail&quot;);if(a){for(e=&quot;&quot;,r=parseInt(a.substr(0,2),16),n=2;a.length-n;n+=2)i=parseInt(a.substr(n,2),16)^r,e+=String.fromCharCode(i);e=document.createTextNode(e),c.parentNode.replaceChild(e,c)}t.parentNode.removeChild(t);}}catch(u){}}()/* ]]&gt; */&lt;/script&gt;\nFormat settings, CABAC      : Yes\nFormat settings, ReFrames   : 5 frames\nCodec ID                    : avc1\nCodec ID/Info               : Advanced Video Coding\nDuration                    : 1h 9mn\nBit rate                    : 3 303 Kbps\nWidth                       : 1 280 pixels\nHeight                      : 720 pixels\nDisplay aspect ratio        : 16:9\nFrame rate mode             : Constant\nFrame rate                  : 25.000 fps\nColor space                 : YUV\nChroma subsampling          : 4:2:0\nBit depth                   : 8 bits\nScan type                   : Progressive\nBits/(Pixel*Frame)          : 0.143\nStream size                 : 1.60 GiB (95%)\nWriting library             : x264 core 130 r2273 b3065e6\nEncoding settings           : cabac=1 / ref=5 / deblock=1:0:0 / analyse=0x3:0x113 / me=umh / subme=8 / psy=1 / psy_rd=1.00:0.00 / mixed_ref=1 / me_range=16 / chroma_me=1 / trellis=1 / 8x8dct=1 / cqm=0 / deadzone=21,11 / fast_pskip=1 / chroma_qp_offset=-2 / threads=24 / lookahead_threads=4 / sliced_threads=0 / nr=0 / decimate=1 / interlaced=0 / bluray_compat=0 / constrained_intra=0 / bframes=3 / b_pyramid=2 / b_adapt=2 / b_bias=0 / direct=3 / weightb=1 / open_gop=0 / weightp=2 / keyint=250 / keyint_min=25 / scenecut=40 / intra_refresh=0 / rc_lookahead=50 / rc=crf / mbtree=1 / crf=23.0 / qcomp=0.60 / qpmin=0 / qpmax=69 / qpstep=4 / ip_ratio=1.40 / aq=1:1.00\n\nAudio\nID                          : 2\nFormat                      : AAC\nFormat/Info                 : Advanced Audio Codec\nFormat profile              : LC\nCodec ID                    : 40\nDuration                    : 1h 9mn\nBit rate mode               : Variable\nBit rate                    : 160 Kbps\nMaximum bit rate            : 297 Kbps\nChannel(s)                  : 2 channels\nChannel positions           : Front: L R\nSampling rate               : 48.0 KHz\nCompression mode            : Lossy\nStream size                 : 79.6 MiB (5%)\nTitle                       : Stereo\nLanguage                    : English","torrent":{"xt":"urn:btih:f78a0a0a106e3a954c5e26ff52e359f8b42a0ceb","amp;dn":"Match+of+the+Day+2+-+S10E06+-+20th+September+2015+-+720p+x264","amp;tr":["udp%3A%2F%2Ftracker.openbittorrent.com%3A80","udp%3A%2F%2Fopen.demonii.com%3A1337","udp%3A%2F%2Ftracker.coppersurfer.tk%3A6969","udp%3A%2F%2Fexodus.desync.com%3A6969"],"infoHash":"f78a0a0a106e3a954c5e26ff52e359f8b42a0ceb","infoHashBuffer":{"type":"Buffer","data":[247,138,10,10,16,110,58,149,76,94,38,255,82,227,89,248,180,42,12,235]},"announce":[],"urlList":[]}}